<?xml version="1.0" standalone="no"?>
<!DOCTYPE svg PUBLIC "-//W3C//DTD SVG 20010904//EN"
 "http://www.w3.org/TR/2001/REC-SVG-20010904/DTD/svg10.dtd">
<svg version="1.0" xmlns="http://www.w3.org/2000/svg"
 width="1024.000000pt" height="1024.000000pt" viewBox="0 0 1024.000000 1024.000000"
 preserveAspectRatio="xMidYMid meet">

<g transform="translate(0.000000,1024.000000) scale(0.100000,-0.100000)"
fill="#000000" stroke="none">
<path d="M4959 7260 c-156 -15 -420 -96 -594 -182 -235 -117 -482 -330 -617
-533 -216 -324 -326 -710 -302 -1059 6 -83 12 -109 38 -160 41 -80 71 -101
145 -101 50 0 65 5 114 37 84 56 104 97 117 243 5 66 15 172 21 236 22 251 79
396 240 609 130 173 342 326 559 404 256 92 525 99 795 21 199 -58 356 -148
501 -287 283 -271 379 -504 403 -977 5 -98 14 -188 20 -198 18 -35 80 -82 122
-93 91 -25 200 35 250 137 22 45 24 58 22 203 -4 385 -103 695 -317 994 -254
355 -642 603 -1069 685 -120 23 -327 33 -448 21z"/>
<path d="M4951 6339 c-29 -17 -72 -49 -95 -72 -56 -57 -263 -326 -481 -627
-99 -137 -239 -326 -311 -422 -73 -95 -239 -333 -371 -528 -209 -310 -346
-505 -565 -800 -66 -90 -105 -164 -114 -217 -20 -125 91 -237 211 -214 102 20
146 62 293 281 42 63 125 178 183 255 58 77 142 195 187 262 45 67 125 179
178 249 54 70 127 170 164 223 99 142 440 608 521 712 38 49 67 94 64 99 -4 6
0 13 8 16 8 3 36 33 63 67 86 111 207 247 219 247 20 0 345 -405 587 -730 64
-85 148 -198 188 -250 40 -52 111 -151 158 -220 47 -69 120 -172 162 -230 80
-109 353 -504 498 -720 105 -155 141 -194 217 -232 199 -102 390 87 281 279
-13 23 -80 115 -148 205 -152 200 -252 340 -533 753 -256 376 -300 437 -663
905 -503 649 -554 709 -628 729 -22 6 -79 11 -129 11 -82 0 -95 -3 -144 -31z"/>
<path d="M4127 4171 c-56 -59 -147 -221 -147 -262 0 -22 126 -132 236 -205
170 -113 450 -228 634 -260 148 -25 446 -23 574 4 216 47 429 135 605 249 100
65 207 164 216 200 9 39 -43 140 -111 212 -52 55 -64 64 -104 68 -44 5 -48 3
-135 -66 -155 -123 -280 -187 -450 -230 -278 -70 -562 -48 -790 62 -49 24
-161 92 -249 151 -87 58 -169 109 -182 112 -13 3 -24 10 -24 15 0 20 -20 6
-73 -50z"/>
</g>
</svg>
